<svg width="34" height="34" viewBox="0 0 34 34" fill="none" xmlns="http://www.w3.org/2000/svg">
<circle cx="17" cy="18" r="13" fill="white" stroke="#333333" stroke-width="1.5"/>
<path d="M4 19.5676L5 12.0676C8.6 6.4676 14.1667 5.0676 16.5 5.0676C18.1667 4.73427 22.7 5.4676 27.5 11.0676C32.3 16.6676 29.8333 22.0676 28 24.0676L26.5 22.5676L25 18.0676C22.3333 18.4009 16.9 19.0676 16.5 19.0676C16.1 19.0676 13.6667 21.4009 12.5 22.5676L7.5 27.0676L5.5 24.0676L4 19.5676Z" fill="#EEEEEE"/>
<circle cx="17" cy="18" r="13" stroke="#333333" stroke-width="1.5"/>
<mask id="mask0_1429_6664" style="mask-type:alpha" maskUnits="userSpaceOnUse" x="4" y="5" width="26" height="26">
<circle cx="17" cy="18" r="13" fill="#F7FAFA"/>
</mask>
<g mask="url(#mask0_1429_6664)">
<path fill-rule="evenodd" clip-rule="evenodd" d="M20.1247 12.3271C17.0644 11.2426 14.4629 12.2013 12.6219 12.8797L12.6017 12.8871C10.492 13.6645 8.08367 13.7434 6.77808 13.6679C6.63409 13.6596 6.50647 13.7278 6.43812 13.8324C6.36752 13.9405 6.36295 14.0852 6.4631 14.2047C6.74977 14.5468 7.16377 14.7801 7.64436 14.9463C8.12522 15.1126 8.68008 15.2141 9.2562 15.2877C9.68362 15.3424 10.1263 15.3821 10.5613 15.4211C10.7124 15.4346 10.8625 15.4481 11.0107 15.462C11.588 15.5165 12.1376 15.5787 12.6143 15.6837C13.3547 15.8468 13.9765 16.4706 14.4662 17.2411C14.9539 18.0085 15.2987 18.9029 15.492 19.5735C15.5577 19.8016 15.808 19.9241 16.0285 19.8366C19.8182 18.3334 23.645 19.4877 25.4891 20.4556C25.7488 20.5919 26.0838 20.4104 26.0682 20.1007C25.8803 16.3649 23.68 13.5869 20.1247 12.3271ZM15.5915 20.2041C15.5719 20.0297 15.4295 19.8986 15.2568 19.9058C13.2819 19.9887 8.93852 21.9338 5.45359 29.2307C2.19702 36.0494 4.80226 43.032 7.01674 46.5299C7.126 46.7024 7.32539 46.7121 7.47314 46.6501C7.62075 46.5882 7.75923 46.4386 7.7448 46.2398C7.57493 43.8997 7.78977 38.7475 11.5318 33.0451C15.3071 27.2922 15.8211 22.2451 15.5915 20.2041ZM26.0012 20.5371C25.8917 20.4792 25.7779 20.4964 25.7023 20.5754C25.6305 20.6503 25.607 20.7659 25.6364 20.8799C26.267 23.3277 26.8679 27.2799 26.7272 31.6166C26.5866 35.9537 25.7044 40.6681 23.3754 44.6466C23.2922 44.7886 23.313 44.9482 23.3948 45.0562C23.4774 45.1654 23.6228 45.2216 23.7753 45.1579C26.2205 44.1364 30.3763 41.0968 31.7244 35.1142C32.5821 31.3077 31.5805 27.8905 30.1537 25.3152C29.4403 24.0275 28.6199 22.9487 27.8702 22.1349C27.1222 21.3227 26.4399 20.7692 26.0012 20.5371ZM10.0807 49.2049C10.6897 48.1775 11.8166 46.9411 13.3769 46.9989C14.4416 47.0383 15.1963 47.3158 15.7102 47.7541C16.2247 48.1929 16.4877 48.7842 16.5855 49.4309C16.6476 49.8413 16.3027 50.1664 15.9076 50.1664H10.6739C10.421 50.1664 10.2068 50.04 10.0886 49.8556C9.96954 49.67 9.94898 49.427 10.0807 49.2049ZM21.1094 47.0009C19.5491 46.9431 18.4222 48.1796 17.8131 49.2069C17.6814 49.429 17.702 49.672 17.821 49.8576C17.9393 50.042 18.1535 50.1685 18.4064 50.1685H23.6401C24.0351 50.1685 24.38 49.8433 24.318 49.4329C24.2201 48.7862 23.9572 48.1949 23.4427 47.7561C22.9288 47.3178 22.1741 47.0404 21.1094 47.0009Z" fill="#333333"/>
<circle cx="17.338" cy="15.1882" r="0.8125" fill="white"/>
</g>
</svg>
