<svg width="50" height="50" viewBox="0 0 50 50" fill="none" xmlns="http://www.w3.org/2000/svg">
<mask id="mask0_1429_8137" style="mask-type:alpha" maskUnits="userSpaceOnUse" x="0" y="0" width="50" height="50">
<circle cx="25" cy="25" r="25" fill="#CAF2D3"/>
</mask>
<g mask="url(#mask0_1429_8137)">
<circle cx="25" cy="25" r="25" fill="#C4EECE"/>
<mask id="mask1_1429_8137" style="mask-type:alpha" maskUnits="userSpaceOnUse" x="0" y="0" width="50" height="50">
<circle cx="25" cy="25" r="25" fill="#CAF2D3"/>
</mask>
<g mask="url(#mask1_1429_8137)">
<path d="M31.6527 38.8964C31.5922 38.7758 31.5367 38.6509 31.4708 38.5335C30.3193 36.5391 29.1795 34.5393 28.0031 32.5592C27.8788 32.3503 27.5842 32.1849 27.3075 32.1301C26.5119 31.9747 25.6977 31.7105 24.869 31.8232C24.0571 31.9334 23.2191 32.4547 22.3927 32.795C18.1491 34.5425 14.5583 33.919 12.3525 31.0402C12.0217 30.6077 11.7141 30.1547 11.4415 29.6858C11.2001 29.2708 11.3653 28.8515 11.893 28.5397C13.808 27.4067 15.8084 26.6002 17.9383 26.3726C20.478 26.1013 22.3128 26.9713 23.7829 28.4002C24.1101 28.7181 24.4051 29.0661 24.6668 29.4333C25.2958 30.3184 25.2991 30.3338 26.7081 30.364C26.6514 30.234 26.6154 30.1238 26.5581 30.0245C25.5408 28.2592 24.5311 26.4881 23.4903 24.7365C23.3791 24.5502 23.1182 24.4143 22.8756 24.3485C21.5123 23.9823 20.2072 24.1671 18.6396 24.8835C14.7416 26.6647 11.3108 25.8681 9.38002 23.0091C9.19795 22.7385 9.02017 22.4624 8.86712 22.175C8.64231 21.7505 8.75008 21.3658 9.25902 21.0662C12.9288 18.9057 17.2388 17.8412 20.216 21.2263C20.4321 21.473 20.6714 21.715 20.8136 22.0029C21.0599 22.5028 21.5513 22.6006 22.2171 22.5791C22.1379 22.4131 22.0829 22.2764 22.01 22.1501C21.3126 20.9358 20.6263 19.7152 19.8972 18.5193C19.767 18.3066 19.4851 18.1568 19.2226 18.0564C18.279 17.6957 17.2408 17.4585 16.3698 17.0097C14.6849 16.1439 13.9056 14.6919 13.9018 12.8181C13.8986 11.6091 14.1852 10.3912 14.6851 9.17247C14.9273 8.58338 15.3064 8.29828 15.8603 8.37014C18.1566 8.66695 20.1571 9.3707 21.3024 11.1182C22.3087 12.6537 22.174 14.4793 21.5717 16.3792C21.3859 16.9673 21.386 17.4207 21.6855 17.8914C22.371 18.9671 22.9762 20.092 23.614 21.1967L23.8839 21.6642C24.2016 21.0589 24.387 20.6107 24.1114 20.1205C23.834 19.6241 23.6539 19.06 23.5285 18.4917C22.8742 15.5292 24.1981 12.8903 27.7669 10.4209C28.1741 10.1398 28.6002 9.87221 29.038 9.64102C29.5676 9.36119 29.9669 9.42721 30.2133 9.82201C31.023 11.1255 31.4593 12.5739 31.2954 14.2278C31.0748 16.4601 29.6118 18.2291 27.5988 19.7829C27.4265 19.9155 27.2642 20.0812 27.0731 20.1685C25.4554 20.9067 25.5691 22.275 24.9827 23.3853C24.9377 23.4703 25.0146 23.6002 25.0655 23.6917C26.1363 25.5527 27.2113 27.4114 28.2856 29.269C28.3062 29.3046 28.3509 29.3277 28.4163 29.3836C28.8238 28.6083 29.038 27.9578 28.671 27.2136C27.7458 25.3333 27.5034 23.2632 28.6176 20.9729C29.4398 19.2815 30.8419 17.9336 32.481 16.7569C33.0271 16.3652 33.6068 16.0061 34.1902 15.6664C34.7328 15.3517 35.184 15.4022 35.4289 15.8007C36.3386 17.2839 36.8315 18.9229 36.6432 20.8025C36.4194 23.0453 35.0227 24.8941 33.0566 26.5418C32.6801 26.857 32.3027 27.2089 31.8714 27.4291C30.8937 27.9287 30.5086 28.6535 30.0928 29.507C29.48 30.7664 29.5591 31.7142 30.2225 32.7004C31.2639 34.2487 32.1175 35.9155 33.0507 37.532L33.297 37.9586C33.3438 37.9503 33.39 37.9409 33.4368 37.9326C33.68 37.3099 33.9432 36.69 34.1508 36.0633C34.2015 35.9116 34.0872 35.7329 34.0125 35.5874C33.2151 34.0307 32.769 32.3546 32.9488 30.4698C33.1971 27.8673 34.7846 25.7011 37.0939 23.8178C38.0061 23.0737 39.0246 22.431 40.0257 21.7868C40.7287 21.3348 41.1541 21.4204 41.4868 21.9712C42.2431 23.2205 42.7003 24.5965 42.8358 26.1049C43.1067 29.1246 41.6107 31.7592 38.8368 34.0763C38.0399 34.7423 37.1284 35.2959 36.2889 35.9231C36.0561 36.0978 35.8137 36.3386 35.7108 36.5722C35.2964 37.5112 34.9133 38.4565 34.5685 39.4043C34.4784 39.6536 34.4827 39.9707 34.5931 40.1747C35.1612 41.2289 35.7769 42.2571 36.3746 43.2956C36.4289 43.3895 36.4893 43.4814 36.5352 43.5801C36.7324 44.0047 36.5786 44.4405 36.1405 44.7064C35.6817 44.9843 35.1807 44.9178 34.929 44.4945C34.276 43.3986 33.6327 42.2972 33.0184 41.1789C32.8458 40.8639 32.5974 40.7179 32.1917 40.6728C31.2626 40.5671 30.342 40.4378 29.4319 40.2851C29.0339 40.2183 28.6996 40.2904 28.3013 40.5103C26.3755 41.5703 24.3686 42.2985 22.2709 42.5435C19.3404 42.8849 17.1786 41.9402 15.5097 40.269C14.8143 39.572 14.2777 38.7415 13.7224 37.9362C13.4031 37.4726 13.5948 37.0481 14.2151 36.6828C16.0885 35.5767 18.0528 34.7651 20.1273 34.365C23.413 33.7322 25.861 34.6397 27.7552 36.4904C28.3381 37.0595 28.7713 37.7524 29.3009 38.3695C29.4408 38.5321 29.6557 38.6744 29.8854 38.7275C30.4272 38.8552 30.998 38.9245 31.5569 39.0179L31.6548 38.8937L31.6527 38.8964Z" fill="#222222"/>
<path d="M34.0028 49.2727L19.5175 17.5938L20.9441 16.7701L41.1362 45.1542L34.0028 49.2727Z" fill="#222222"/>
</g>
</g>
</svg>
